<?xml version="1.0" encoding="utf-8"?>
<!-- Generator: Adobe Illustrator 27.3.1, SVG Export Plug-In . SVG Version: 6.00 Build 0)  -->
<svg version="1.1" id="Layer_1" xmlns="http://www.w3.org/2000/svg" xmlns:xlink="http://www.w3.org/1999/xlink" x="0px" y="0px"
	 viewBox="0 0 213 40.8" style="enable-background:new 0 0 213 40.8;" xml:space="preserve">
<style type="text/css">
	.st0{fill:#F0E3E7;}
</style>
<g id="Layer_1-2">
	<g>
		<path class="st0" d="M12.4,24.5c-0.1,0-0.2-0.1-0.3-0.2C9.4,20.7,6.7,17.2,4,14c-1.2-0.1-2.4-0.2-3.6-0.3c-0.2,0-0.4-0.1-0.4-0.3
			v-2.8c0-0.3,0.1-0.4,0.4-0.4C6.2,10.5,12.1,10.8,18,11c0.2,0,0.3,0.1,0.3,0.3c0,1.1,0,2.3,0,3.4c0,0.2-0.1,0.4-0.2,0.4
			c-0.7,0-1.5-0.1-2.2-0.2c0.9,1.2,1.8,2.5,2.8,3.8c0.9-1.1,1.8-2.3,2.8-3.4c-0.7,0-1.4-0.1-2-0.1c-0.1,0-0.2-0.1-0.2-0.3
			c0-1.2,0-2.4,0-3.7c0-0.1,0.2-0.2,0.3-0.2c3.9,0.2,7.9,0.3,11.8,0.4c0.2,0,0.3,0.1,0.3,0.2c0,1.3,0,2.6,0,3.9c0,0.2,0,0.3-0.2,0.3
			c-1.3-0.1-2.6-0.1-3.9-0.2c-2.8,3.4-5.5,6.6-8.3,9.6c-0.1,0.1-0.3,0.3-0.3,0.3C16.7,25.2,14.5,24.9,12.4,24.5L12.4,24.5z
			 M46.3,29.8c0.2,0,0.3,0.2,0.3,0.3c0,1.3,0,2.7,0,4c0,0.2-0.1,0.3-0.3,0.3c-5.9-0.2-11.8-0.6-17.7-1.1c-0.1,0-0.2-0.3-0.2-0.4
			c0-1.3,0-2.5,0-3.8c0-0.2,0.2-0.3,0.3-0.3c1.4,0.1,2.7,0.2,4.1,0.3c0-2.2,0-4.5,0-6.7c-1.3,0-2.6-0.1-3.9-0.2
			c-0.3,0-0.4-0.1-0.4-0.3c0-1.2,0-2.4,0-3.6c0-0.4,0.1-0.6,0.4-0.5c4.4,0.1,8.9,0.2,13.3,0.3c0.2,0,0.3,0.2,0.3,0.3
			c0,3.7,0,7.5,0,11.2C43.7,29.7,45,29.7,46.3,29.8L46.3,29.8z M41.2,11.5c0.3,0,0.4,0.1,0.4,0.5c0,1.4,0,2.8,0,4.2
			c0,0.2-0.1,0.4-0.3,0.4c-2.4,0-4.9-0.1-7.3-0.1c-0.2,0-0.3,0-0.3-0.2c0-1.5,0-3,0-4.4c0-0.1,0.1-0.3,0.3-0.3
			C36.4,11.5,38.8,11.5,41.2,11.5z M144.7,16c0-0.1,0-0.3,0-0.4c-0.1-0.9-0.5-1.6-1.3-2.2c-2.5-2-8.1-2.6-12.1-1.9
			c-1.5,0.2-3.1,0.5-4.6,0.8c-1,0.1-7.9,1.8-10.5,5.1c-1.1,0.2-2.2,0.3-3.3,0.5c0-1.5,0-3,0-4.5c0-2.4-2.3-4.5-5.9-4.3
			c-1.8,0.1-3.7,0.2-5.5,0.2c-3.8,0.1-5.4,2.4-5.8,3.1c0,0,0,0-0.1,0c0-0.9,0-1.7,0-2.6c0-0.1-0.1-0.3-0.3-0.3
			C90.8,9.7,80.8,9.8,76.4,10c-0.2,0-0.4,0.2-0.4,0.6c0,1.2,0,2.5,0,3.7c0,0.2,0.2,0.3,0.4,0.3c1.3-0.1,8.1-0.1,9.4-0.2
			c0,2.2,0,4.3,0,6.5c-1.3,0.1-2.6,0.2-3.9,0.3c-0.1,0-0.3,0.1-0.3,0.3c0,1.3,0,2.6,0,3.8c0,0.2,0.1,0.4,0.2,0.4
			c5.6-0.5,11.2-1.1,16.7-1.8c0.2,0,0.3-0.1,0.3-0.3c0-1.2,0-2.4,0-3.6c0-0.1-0.1-0.3-0.3-0.3c-1,0.1-2,0.2-3.1,0.3
			c0-0.3,0-0.5,0-0.8c0-2.3,0-5.3,3.9-5.5c3.7-0.3,4,0.5,4,4.1c0,0.4,0,0.9,0,1.3c-1.1,0.1-2.2,0.3-3.3,0.4c-0.2,0-0.3,0.2-0.3,0.4
			c0,1.1,0,2.2,0,3.4c0,0.3,0.1,0.4,0.4,0.4c5.1-0.7,10.1-1.6,15.2-2.5c1.6,5.4,11.6,3.5,16,2.8c0.8-0.1,1.7-0.3,2.5-0.4
			c8.5-1.3,10.1-4.8,10.6-6.1c0-0.1-0.1-0.3-0.3-0.2c-1.8,0.2-3.7,0.4-5.5,0.7c-0.1,0-0.2,0.1-0.2,0.1c-1,1.3-2.7,1.7-4.7,2
			c-0.8,0.1-1.5,0.2-2.3,0.4c-2.1,0.4-4.6,0.2-5.2-1.3l14.8-2.5L144.7,16z M184.1,17.8c-0.9-0.1-1.8-0.2-2.7-0.2
			c-0.3,0-0.4,0.3-0.4,0.5c-0.6,1.5-1.4,2.4-2.8,2.3c-1.3-0.1-1.8-1.4-1.8-2c0.1-1.1,0.1-2.2,0.2-3.2c1.5,0.1,3.1,0.2,4.6,0.3
			c0.3,0,0.5-0.2,0.6-0.3c0.1-0.8,0.1-1.7,0.2-2.5c0-0.4-0.4-0.5-0.7-0.5c-1.5-0.1-3-0.2-4.5-0.3c0.1-1.6,0.2-3.1,0.3-4.7
			c0-0.2-0.2-0.4-0.4-0.4c-1.7-0.1-3.4-0.2-5.2-0.3c-0.1,0-0.3,0.2-0.4,0.4c-1,3.1-2.6,4.2-6,4.4c0,0-0.1-0.1-0.2-0.1
			c-0.9,0-1.8,0-2.7,0c-0.3,0-0.4,0.3-0.4,0.5c-0.4,1.6-1.1,2.5-2.6,2.6c-1.3,0-2-1.2-2-1.9c0-1.1-0.1-2.2-0.1-3.3
			c1.6-0.1,3.1-0.1,4.7-0.1c0.3,0,0.5-0.2,0.5-0.4c0-0.8,0-1.7,0-2.5c0-0.4-0.4-0.4-0.7-0.4c-1.5,0-3,0.1-4.5,0.1
			c-0.1-1.6-0.1-3.1-0.2-4.7c0-0.2-0.2-0.3-0.5-0.3c-1.7,0.1-3.4,0.2-5.2,0.3c-0.1,0-0.3,0.2-0.3,0.5c-0.7,3.5-2.5,4.7-6.6,5.1
			c-0.5,0-1,0.1-1.5,0.1c-0.2,0-0.4,0.2-0.3,0.4c0.1,0.9,0.2,1.8,0.3,2.7c0,0.1,0.2,0.2,0.5,0.2c1.4-0.1,2.7-0.3,4.1-0.4
			c0.1,1.8,0.3,3.5,0.4,5.3c0.2,2.8,3.9,3.1,4.7,3.1c2-0.1,4-0.2,6-0.3c3.2-0.1,4.9-1.7,5.8-3.3c0.8,0,1.7,0,2.5,0
			c0,1.8-0.1,3.5-0.1,5.3c0,2.8,3.5,3.5,4.4,3.5c2,0.1,4,0.2,6,0.3c5.8,0.4,7.3-4.5,7.4-5.6C184.4,17.9,184.3,17.8,184.1,17.8
			L184.1,17.8z M69.6,16.6c0,0-0.1,0-0.1,0c-5.6,0.2-11.3,0.3-17,0.3c-0.2,0-0.6-0.1-0.9-0.2c-0.2-0.1-0.4-0.3-0.4-0.6
			c0-0.5,0.2-0.8,0.3-1c3.2,0,6.5,0,9.7-0.1c0.3,0,0.7,0,1-0.1c1.7-0.1,3.4-0.6,5-1.3c0.6-0.3,1.1-0.6,1.6-0.9
			c0.6-0.5,1.2-1,1.5-1.8c0.2-0.5,0.1-1.1,0-1.6c-0.2-0.5-0.4-1-0.8-1.3c-2.2-2.4-5.7-2.8-8.9-2.8c-0.6,0-1.1,0-1.6,0
			c-1,0-2,0-3.1,0c-1.4,0-11.2,0.4-11.2,5.2c0,0.9,0.6,1.8,1.3,2.4c0.7,0.7,1.6,1.1,1.9,1.3c-0.6,0.4-1.9,1.3-2.7,2.4
			c-0.3,0.5-0.6,1-0.6,1.6c0,2,1.8,2.9,2.1,3.3c-0.7,0.5-2.1,1.1-2.1,2.5c0,0.9,1,1.9,2.1,2.4c0.5,0.3,1.1,0.4,1.5,0.4
			c4.4,0.1,8.7,0.1,13.1-0.1c2-0.1,3.9-0.1,5.9-0.2c1.4-0.1,2.8-0.2,4.2-0.2c1.1-0.1,7.1-1.7,7.1-5.5C78.4,16.7,73,16.5,69.6,16.6
			L69.6,16.6z M64.6,23.8c-0.1,0-0.1,0-0.2,0c-0.9,0-1.7,0.1-2.6,0.1c-3.7,0.1-7.4,0.1-11.1,0.1c-0.6,0-1.1-0.1-1.4-0.3
			c-0.2-0.1-0.2-0.3-0.2-0.5c0-0.6,0.4-0.9,0.6-1c4.1,0.1,8.3,0,12.4-0.1c0.2,0,0.4,0,0.6,0c1.4,0,5.3-0.2,5.3,0.7
			C68,23.6,66.9,23.7,64.6,23.8L64.6,23.8z M184.8,9.6c-1.3,2.1-0.8,5,1.3,6.4c3.2,2.2,8.7,3.2,11.6,3.8c0.8,0.2,1.7,0.3,2.5,0.5
			c8.5,1.7,11.2-1.1,12-2.2c0-0.1,0-0.3-0.2-0.3c-1.8-0.4-3.6-0.9-5.4-1.3c-0.1,0-0.2,0-0.3,0.1c-1.3,0.9-3.1,0.7-5.1,0.3
			c-0.8-0.1-1.5-0.3-2.3-0.4c-2.1-0.4-4.4-1.3-4.5-3l14.8,2.7l3.5,0.6c0-0.1,0.1-0.3,0.1-0.4c0.2-0.8,0-1.7-0.5-2.5
			c-1.6-2.8-6.7-5.2-10.8-5.9c-1.5-0.3-3-0.6-4.6-0.8c-0.8-0.2-5.9-0.8-9.7,0.4C186.4,7.8,185.4,8.6,184.8,9.6L184.8,9.6L184.8,9.6z
			"/>
		<g>
			<path class="st0" d="M57.9,38.1c0-1.1,1.2-2,3.5-2s3.3,0.7,3.3,1.7l-1.7,0c0-0.3-0.5-0.5-1.5-0.5c-1,0-1.5,0.4-1.5,0.8
				c0,0.4,0.4,0.8,1.5,0.8c1,0,1.5-0.3,1.5-0.6l1.7,0c0,1-1,1.7-3.3,1.8C59,40,57.9,39.1,57.9,38.1L57.9,38.1z"/>
			<path class="st0" d="M68.3,37.8c0-1.1,1.1-2,3.5-2.1c2.5-0.1,3.6,0.7,3.7,1.8c0,1.1-1,2-3.5,2.1C69.5,39.7,68.4,38.9,68.3,37.8
				L68.3,37.8z M73.6,37.6c0-0.4-0.5-0.8-1.6-0.7c-1.2,0-1.6,0.4-1.6,0.9c0,0.4,0.5,0.8,1.6,0.7C73.1,38.4,73.6,38,73.6,37.6
				L73.6,37.6z"/>
			<path class="st0" d="M79.1,33.9l2-0.1l0.3,5.3l-2,0.1L79.1,33.9z"/>
			<path class="st0" d="M85.1,33.6l2-0.1l0.3,5.3l-2,0.1L85.1,33.6z"/>
			<path class="st0" d="M98,36.6l-4.8,0.3c0.1,0.4,0.5,0.6,1.7,0.6c1-0.1,1.4-0.3,1.4-0.5l1.7-0.1c0,0.8-0.9,1.5-3.2,1.6
				c-2.8,0.2-3.7-0.8-3.7-1.7c-0.1-1.2,1.2-2.1,3.5-2.2c2.2-0.1,3.3,0.5,3.4,1.7L98,36.6z M96.2,36c0-0.3-0.4-0.5-1.5-0.5
				c-0.9,0.1-1.4,0.3-1.5,0.7L96.2,36L96.2,36z"/>
			<path class="st0" d="M101.7,36.2c-0.1-1.1,1.1-2.1,3.3-2.2c2.2-0.2,3.3,0.5,3.4,1.5l-1.7,0.1c0-0.3-0.5-0.5-1.5-0.4
				c-1,0.1-1.5,0.5-1.5,0.9c0,0.4,0.5,0.7,1.6,0.7c1-0.1,1.5-0.4,1.5-0.7l1.7-0.1c0.1,1-0.9,1.8-3.2,2
				C102.9,38,101.8,37.2,101.7,36.2L101.7,36.2z"/>
			<path class="st0" d="M112.7,35.7l-0.1-1.1l-0.9,0.1l-0.1-1.2l0.7-0.1c0.3,0,0.4-0.1,0.4-0.4l0-0.5l1.6-0.2l0.1,0.8l2.7-0.3
				l0.1,1.2l-2.7,0.3l0.1,0.9c0,0.3,0.2,0.4,1.5,0.3c0.5-0.1,0.9-0.1,1.2-0.2l0.1,1.1c-0.2,0.1-0.8,0.2-1.6,0.3
				C113.4,37.1,112.8,36.4,112.7,35.7L112.7,35.7z"/>
			<path class="st0" d="M120.8,31l2-0.2l0.1,1.1l-2,0.2L120.8,31z M121,32.5l2-0.2l0.4,3.7l-2,0.2L121,32.5z"/>
			<path class="st0" d="M126.9,33.7c-0.1-1.1,0.9-2.1,3.3-2.4c2.4-0.3,3.7,0.4,3.8,1.5c0.1,1.1-0.9,2.1-3.3,2.4
				C128.3,35.4,127.1,34.7,126.9,33.7z M132.1,33c-0.1-0.4-0.6-0.7-1.7-0.6c-1.1,0.2-1.5,0.6-1.5,1c0.1,0.4,0.6,0.7,1.7,0.6
				C131.7,33.8,132.1,33.4,132.1,33L132.1,33z"/>
			<path class="st0" d="M137.5,30.4l2-0.3l0.2,1.2h0c0.2-0.8,0.9-1.5,2.4-1.7c1.8-0.3,2.7,0.3,2.9,1.5l0.3,1.8l-2,0.3l-0.2-1.4
				c-0.1-0.7-0.6-0.9-1.6-0.8c-1,0.2-1.7,0.6-1.5,1.4l0.2,1.2l-2,0.3L137.5,30.4L137.5,30.4z"/>
			<path class="st0" d="M148.7,31.2l1.7-0.3c0,0.2,0.3,0.4,1.4,0.2c1.1-0.2,1.4-0.4,1.3-0.6c0-0.1-0.1-0.2-0.4-0.1
				c-0.3,0-0.9,0.1-1.6,0.2c-0.9,0.1-1.6,0.2-2,0.1c-0.4-0.1-0.6-0.3-0.7-0.7c-0.1-0.8,0.9-1.5,2.9-1.9c2.7-0.5,3.2,0.2,3.3,0.8
				l-1.7,0.3c0-0.2-0.3-0.4-1.3-0.2c-0.9,0.2-1.3,0.4-1.2,0.6c0,0.1,0.1,0.2,0.5,0.2c0.3,0,0.9-0.1,1.6-0.2c0.6-0.1,1.4-0.2,1.9-0.1
				c0.5,0.1,0.7,0.3,0.8,0.7c0.1,0.6-0.3,1.4-3.1,1.9C149.2,32.4,148.8,31.7,148.7,31.2L148.7,31.2z"/>
		</g>
	</g>
</g>
</svg>
