<svg width="213" height="34" viewBox="0 0 213 34" fill="none" xmlns="http://www.w3.org/2000/svg">
<path d="M12.3876 23.7169C12.2735 23.7006 12.1839 23.6598 12.1146 23.5457C9.41298 19.8906 6.70726 16.4147 3.98931 13.1711C2.79537 13.0651 1.60143 12.951 0.407488 12.8369C0.15892 12.8166 0 12.7065 0 12.5721V9.75225C0 9.47923 0.138546 9.32439 0.366739 9.33661C6.23049 9.66668 12.1024 9.94784 17.9784 10.1801C18.1373 10.1883 18.2962 10.3268 18.2962 10.4613C18.2881 11.6022 18.284 12.7432 18.2758 13.8883C18.2758 14.0757 18.1821 14.2876 18.068 14.2794C17.3345 14.2305 16.6051 14.1776 15.8717 14.1287C16.7967 15.3715 17.7176 16.6347 18.6426 17.9183C19.5635 16.8018 20.4885 15.6608 21.4135 14.4995C20.733 14.4587 20.0566 14.4139 19.3761 14.3691C19.262 14.3609 19.1723 14.2224 19.1723 14.0838C19.1805 12.8614 19.1886 11.643 19.1968 10.4205C19.1968 10.2861 19.3801 10.2372 19.4494 10.2412C23.3817 10.392 27.3139 10.5224 31.2503 10.6283C31.4092 10.6324 31.5029 10.7506 31.5029 10.8647C31.4948 12.1524 31.4866 13.4359 31.4785 14.7195C31.4785 14.8947 31.4296 15.0374 31.3155 15.0292C30.0319 14.9681 28.7483 14.907 27.4647 14.8377C24.706 18.2036 21.9514 21.4064 19.2008 24.3974C19.0867 24.5196 18.9482 24.6622 18.8545 24.65C16.6989 24.3607 14.5433 24.0469 12.3917 23.7128L12.3876 23.7169Z" fill="#F0E3E7"/>
<path d="M46.2906 28.9407C46.474 28.9448 46.5881 29.1322 46.5881 29.2871C46.5881 30.6359 46.5799 31.9806 46.5759 33.3294C46.5759 33.5739 46.4618 33.6309 46.2743 33.6268C40.378 33.4231 34.4816 33.0563 28.6056 32.5266C28.4671 32.5144 28.3774 32.2454 28.3774 32.0987C28.3856 30.8478 28.3937 29.5968 28.3978 28.3417C28.3978 28.1665 28.5608 28.0605 28.6749 28.0687C30.0278 28.1665 31.3847 28.2561 32.7416 28.3417C32.7539 26.1127 32.7661 23.8838 32.7783 21.6548C31.4703 21.6059 30.1622 21.5489 28.8542 21.4918C28.6016 21.4796 28.4426 21.3859 28.4426 21.1821C28.4508 19.9678 28.4589 18.7576 28.463 17.5433C28.463 17.1928 28.6016 16.9932 28.8338 17.0013C33.2592 17.1154 37.6885 17.2051 42.1179 17.2662C42.3013 17.2662 42.4154 17.421 42.4154 17.5718C42.4032 21.3207 42.391 25.0696 42.3747 28.8185C43.6786 28.8674 44.9826 28.9081 46.2865 28.9448L46.2906 28.9407ZM41.2296 10.6689C41.4823 10.6689 41.6656 10.7912 41.6616 11.1253C41.6575 12.523 41.6534 13.9166 41.6453 15.3143C41.6453 15.4977 41.5515 15.7055 41.3233 15.7055C38.8743 15.677 36.4294 15.6444 33.9845 15.6036C33.8011 15.6036 33.687 15.571 33.687 15.3632C33.6952 13.8881 33.7033 12.413 33.7115 10.9379C33.7115 10.8197 33.8256 10.6689 34.0334 10.6689C36.4335 10.6689 38.8295 10.6689 41.2296 10.6689Z" fill="#F0E3E7"/>
<path d="M144.666 15.1312C144.65 14.9967 144.638 14.8582 144.622 14.7237C144.54 13.8721 144.076 13.1508 143.346 12.5518C140.861 10.5144 135.274 9.93165 131.207 10.6203C129.679 10.8689 128.155 11.1297 126.631 11.4068C125.657 11.5086 118.705 13.163 116.167 16.5248C115.054 16.696 113.946 16.863 112.834 17.026C112.834 15.5387 112.825 14.0514 112.821 12.5681C112.817 10.1476 110.527 8.09388 106.933 8.2365C105.087 8.32207 103.241 8.40765 101.395 8.48507C97.5486 8.62769 96.0043 10.8567 95.6212 11.5453C95.5968 11.5453 95.5764 11.5453 95.552 11.5453C95.5479 10.6937 95.5397 9.83793 95.5356 8.98628C95.5356 8.84773 95.4175 8.71734 95.2341 8.72141C90.821 8.88033 80.7764 9.02295 76.3552 9.1289C76.127 9.13298 75.9884 9.34487 75.9925 9.69531C76.0007 10.9218 76.0047 12.1484 76.0129 13.3749C76.0129 13.5827 76.1963 13.6642 76.4489 13.652C77.704 13.599 84.5864 13.5379 85.8374 13.4768C85.8497 15.6487 85.8619 17.8206 85.8782 19.9925C84.5864 20.0903 83.2906 20.18 81.9989 20.2656C81.8848 20.2737 81.7014 20.4041 81.7014 20.5793C81.7096 21.8548 81.7137 23.1302 81.7218 24.4056C81.7218 24.6135 81.8155 24.809 81.9541 24.8009C87.5367 24.3404 93.1111 23.7333 98.6652 22.9753C98.8485 22.9509 98.9626 22.8816 98.9626 22.6657C98.9545 21.4717 98.9463 20.2778 98.9423 19.0838C98.9423 18.9494 98.8241 18.7986 98.6448 18.819C97.622 18.929 96.5992 19.0349 95.5805 19.1409C95.5805 18.876 95.5805 18.6071 95.5764 18.3422C95.5601 16.0562 95.5438 13.0775 99.4557 12.8248C103.139 12.5681 103.416 13.3179 103.437 16.9404C103.437 17.3846 103.441 17.8288 103.445 18.2689C102.341 18.4033 101.236 18.5297 100.132 18.656C99.9487 18.6763 99.8346 18.823 99.8387 19.0105C99.8469 20.1352 99.851 21.2598 99.8591 22.3845C99.8591 22.6494 99.9528 22.8001 100.226 22.7594C105.307 22.0422 110.372 21.1906 115.417 20.2248C116.986 25.5955 127.051 23.7292 131.464 23.0731C132.303 22.9305 133.139 22.792 133.978 22.6616C142.527 21.3658 144.116 17.8573 144.581 16.5493C144.597 16.48 144.528 16.2762 144.316 16.3007C142.474 16.5004 140.636 16.7204 138.803 16.9608C138.733 16.969 138.644 17.026 138.558 17.1075C137.584 18.3707 135.897 18.8353 133.852 19.1531C133.086 19.2713 132.32 19.3976 131.554 19.5239C129.418 19.8744 127.002 19.7684 126.342 18.22L141.134 15.7261L144.666 15.1312Z" fill="#F0E3E7"/>
<path d="M184.099 16.9361C183.199 16.8506 182.298 16.7691 181.398 16.6957C181.112 16.6713 181.019 16.9646 180.953 17.1888C180.399 18.7087 179.58 19.5807 178.129 19.4789C176.797 19.3851 176.288 18.0975 176.328 17.4292C176.394 16.3453 176.463 15.2654 176.528 14.1815C178.076 14.2752 179.625 14.3853 181.173 14.5116C181.463 14.536 181.719 14.3282 181.732 14.1652C181.801 13.3299 181.87 12.4904 181.944 11.6551C181.976 11.268 181.569 11.1865 181.251 11.162C179.747 11.0398 178.239 10.9338 176.732 10.8401C176.825 9.2835 176.923 7.72689 177.017 6.17436C177.029 5.94617 176.838 5.81985 176.593 5.80355C174.87 5.70168 173.15 5.6161 171.426 5.55091C171.28 5.54683 171.096 5.76687 171.039 5.99507C170.086 9.08383 168.419 10.2329 165.012 10.3837C164.964 10.3511 164.906 10.3307 164.813 10.3307C163.908 10.3307 163.008 10.343 162.103 10.3593C161.818 10.3633 161.752 10.6649 161.708 10.8931C161.308 12.4578 160.579 13.4114 159.128 13.4521C157.796 13.4929 157.16 12.2582 157.132 11.594C157.091 10.51 157.05 9.42612 157.005 8.3422C158.558 8.28108 160.106 8.24033 161.659 8.2118C161.948 8.20773 162.184 7.97139 162.18 7.81247C162.168 6.97304 162.152 6.13361 162.14 5.29419C162.131 4.903 161.72 4.86633 161.402 4.8704C159.894 4.89893 158.383 4.94375 156.875 5.0008C156.814 3.44419 156.757 1.88759 156.696 0.326908C156.687 0.0987145 156.484 -0.0113073 156.235 0.000917358C154.511 0.0701903 152.788 0.159838 151.068 0.265785C150.921 0.273934 150.758 0.514352 150.726 0.746621C150.021 4.21842 148.24 5.46126 144.141 5.83615C143.648 5.88097 143.155 5.92987 142.662 5.97877C142.421 6.00322 142.287 6.15399 142.315 6.42701C142.405 7.32348 142.499 8.21995 142.588 9.11643C142.601 9.25497 142.78 9.32832 143.041 9.2998C144.402 9.16533 145.767 9.039 147.132 8.92898C147.274 10.6893 147.417 12.4456 147.564 14.206C147.8 16.985 151.439 17.3355 152.287 17.2906C154.291 17.1684 156.3 17.0706 158.305 17.0054C161.484 16.9117 163.224 15.3388 164.149 13.7536C164.98 13.7618 165.811 13.7618 166.646 13.7781C166.614 15.5425 166.581 17.3069 166.549 19.0714C166.508 21.8586 170.09 22.5676 170.941 22.6124C172.95 22.6899 174.955 22.7958 176.96 22.9262C182.714 23.3296 184.258 18.4316 184.372 17.2988C184.397 17.0706 184.335 16.9484 184.099 16.928V16.9361Z" fill="#F0E3E7"/>
<path d="M69.6071 15.7952C69.5664 15.7952 69.5216 15.7952 69.4808 15.7992C63.833 16.0193 58.1812 16.1252 52.5293 16.1049C52.3337 16.1049 51.914 16.0478 51.588 15.8889C51.3435 15.7707 51.1479 15.5914 51.152 15.3266C51.152 14.8335 51.3598 14.4953 51.4984 14.3119C54.7338 14.3282 57.9733 14.3201 61.2047 14.2589C61.5429 14.2508 61.8852 14.2345 62.2316 14.206C63.9105 14.0674 65.6504 13.6558 67.1907 12.9346C67.7612 12.6657 68.3073 12.356 68.8085 11.9974C69.4482 11.541 70.0472 10.9583 70.2795 10.2085C70.4425 9.68284 70.4058 9.12458 70.2347 8.603C70.0717 8.10586 69.7864 7.64132 69.436 7.25421C67.2111 4.82151 63.7189 4.47514 60.5364 4.43439C59.9863 4.42624 59.4444 4.43032 58.9187 4.43439C57.8919 4.43847 56.8691 4.44254 55.8422 4.44254C54.4649 4.45884 44.6648 4.82966 44.6526 9.65432C44.6526 10.5997 45.2434 11.4187 45.9198 12.0422C46.6656 12.7309 47.5172 13.1791 47.7984 13.2932C47.236 13.717 45.8995 14.5605 45.1415 15.6933C44.8156 16.1823 44.5914 16.7283 44.5914 17.3192C44.5874 19.2833 46.4048 20.2205 46.7063 20.5954C45.9891 21.0721 44.6322 21.6508 44.6281 23.0566C44.6281 24.002 45.6387 24.9392 46.7145 25.4608C47.2442 25.7175 47.7943 25.8805 48.2425 25.8886C52.5986 25.9824 56.9546 25.962 61.3066 25.8357C63.2666 25.7786 65.2226 25.7012 67.1826 25.5993C68.568 25.5301 69.9494 25.4486 71.3349 25.3589C72.4636 25.3019 78.4659 23.6841 78.4456 19.813C78.4252 15.9052 73.0463 15.6729 69.6153 15.7911L69.6071 15.7952ZM64.5828 23.0036C64.5135 23.0036 64.4483 23.0077 64.3791 23.0118C63.5233 23.0444 62.6635 23.0688 61.8078 23.0892C58.0997 23.1911 54.3915 23.2277 50.6793 23.187C50.0559 23.1788 49.5872 23.0892 49.3265 22.8692C49.1716 22.7388 49.086 22.5635 49.086 22.3353C49.086 21.72 49.4568 21.447 49.7095 21.3289C53.8455 21.3818 57.9774 21.3533 62.1134 21.2392C62.2968 21.2351 62.4802 21.2311 62.6635 21.227C64.0938 21.1944 67.9609 21.0069 67.965 21.9727C67.965 22.7958 66.9014 22.9099 64.5787 22.9996L64.5828 23.0036Z" fill="#F0E3E7"/>
<path d="M184.796 8.75814C183.496 10.8974 184.018 13.7254 186.075 15.1516C189.286 17.3765 194.767 18.3137 197.693 18.9046C198.528 19.0554 199.364 19.2102 200.199 19.3691C208.679 21.0561 211.364 18.2934 212.248 17.2176C212.289 17.1565 212.293 16.9446 212.085 16.8957C210.288 16.4556 208.483 16.04 206.674 15.6447C206.605 15.6284 206.503 15.6528 206.397 15.7017C205.052 16.5575 203.308 16.423 201.275 16.0277C200.513 15.881 199.751 15.7343 198.989 15.5958C196.862 15.2005 194.625 14.2796 194.531 12.6007L209.29 15.2779L212.815 15.9177C212.847 15.7832 212.88 15.6528 212.913 15.5184C213.129 14.6871 212.933 13.8517 212.452 13.0408C210.806 10.2781 205.749 7.83314 201.69 7.09966C200.17 6.81442 198.646 6.5414 197.118 6.28468C196.32 6.08909 191.177 5.48601 187.461 6.66772C186.353 7.01816 185.407 7.76386 184.8 8.75814H184.796Z" fill="#F0E3E7"/>
</svg>
